<?xml version="1.0" encoding="iso-8859-1"?>
<!-- Generator: Adobe Illustrator 19.0.0, SVG Export Plug-In . SVG Version: 6.00 Build 0)  -->
<svg version="1.1" id="Capa_1" xmlns="http://www.w3.org/2000/svg" xmlns:xlink="http://www.w3.org/1999/xlink" x="0px" y="0px"
	 viewBox="0 0 512 512" style="enable-background:new 0 0 512 512;" xml:space="preserve">
<polygon style="fill:#DCE4EC;" points="357.845,0 235.984,122.576 256,512 411.002,512 411.002,423.396 426.001,413.388 
	441.001,423.396 496.053,423.396 496.053,59.209 "/>
<polygon style="fill:#BDC4CB;" points="357.845,0 256,0 235.984,61 256,142.59 256.001,142.591 "/>
<polygon style="fill:#DCE4EC;" points="154.156,0 167.667,93 256,142.59 256,0 "/>
<polygon style="fill:#F7F7F8;" points="256.001,142.591 154.156,0 15.947,59.209 15.947,423.396 70.999,423.396 85.999,413.388 
	100.999,423.396 100.999,512 256,512 256,142.592 "/>
<path style="fill:#DCE4EC;" d="M256.001,142.591L357.845,0L256.001,142.591z"/>
<polygon style="fill:#404040;" points="431.018,359.607 256,359.607 235.984,391.502 256,423.396 411.002,423.396 "/>
<polygon style="fill:#606060;" points="80.983,359.607 100.999,423.396 256,423.396 256,359.607 "/>
<rect x="70.999" y="131.73" style="fill:#DCE4EC;" width="30" height="291.66"/>
<rect x="411" y="131.73" style="fill:#BDC4CB;" width="30" height="291.66"/>
<g>
</g>
<g>
</g>
<g>
</g>
<g>
</g>
<g>
</g>
<g>
</g>
<g>
</g>
<g>
</g>
<g>
</g>
<g>
</g>
<g>
</g>
<g>
</g>
<g>
</g>
<g>
</g>
<g>
</g>
</svg>
